<svg id="Layer_1" data-name="Layer 1" xmlns="http://www.w3.org/2000/svg" width="16" height="16" viewBox="0 0 16 16"><path d="M1,2.609V13.351C1,15.091,4.521,16,8,16a19.5,19.5,0,0,0,1.992-.1A4.95,4.95,0,0,1,8.023,15H8c-3.882,0-6-1.087-6-1.646V11.2a10.291,10.291,0,0,0,4.2,1.136,4.957,4.957,0,0,1-.173-1.032C3.421,11.02,2,10.225,2,9.771V7.62A10.73,10.73,0,0,0,6.541,8.781a4.936,4.936,0,0,1,.64-.972C3.834,7.667,2,6.707,2,6.19V4.04A12.565,12.565,0,0,0,8,5.26a12.565,12.565,0,0,0,6-1.22V6.19c0,.148-.161.335-.454.528A5,5,0,0,1,15,8.027V2.609C15-.87,1-.87,1,2.609ZM8,4.257c-3.882,0-6-1.089-6-1.648S4.118.963,8,.963s6,1.087,6,1.646S11.882,4.257,8,4.257Z"/><circle cx="11" cy="11" r="4" fill="#f5b642"/></svg>