<svg id="Layer_1" data-name="Layer 1" xmlns="http://www.w3.org/2000/svg" width="16" height="16" viewBox="0 0 16 16"><path d="M8.023,15H8c-3.882,0-6-1.087-6-1.646V11.2A11.4,11.4,0,0,0,7.04,12.4C7.029,12.262,7,12.135,7,12a4.984,4.984,0,0,1,.062-.615C3.79,11.226,2,10.282,2,9.771V7.62A12.565,12.565,0,0,0,8,8.84c.054,0,.107,0,.161,0A4.991,4.991,0,0,1,9.324,7.791c-.416.029-.856.046-1.324.046-3.882,0-6-1.088-6-1.647V4.04A12.565,12.565,0,0,0,8,5.26a12.565,12.565,0,0,0,6-1.22V6.19c0,.242-.422.582-1.19.892A4.943,4.943,0,0,1,15,8.026V2.609C15-.87,1-.87,1,2.609V13.351C1,15.091,4.521,16,8,16c.333,0,.666-.011,1-.028A5.026,5.026,0,0,1,8.023,15ZM8,.963c3.882,0,6,1.087,6,1.646S11.882,4.257,8,4.257,2,3.168,2,2.609,4.118.963,8,.963Z"/><path d="M11.989,9.873h-1.5a.5.5,0,0,0-.5.5v3a.5.5,0,0,0,.5.5h1.5a2,2,0,0,0,0-4Zm0,3h-1v-2h1a1,1,0,0,1,0,2Z"/></svg>