<svg id="Layer_1" data-name="Layer 1" xmlns="http://www.w3.org/2000/svg" width="16" height="16" viewBox="0 0 16 16"><path d="M9.6,14.925C9.1,14.968,8.576,15,8,15c-3.882,0-6-1.087-6-1.646V11.2A12.578,12.578,0,0,0,8,12.42c.615,0,1.23-.03,1.827-.087a4.473,4.473,0,0,1,.634-1.082A17.518,17.518,0,0,1,8,11.417c-3.882,0-6-1.087-6-1.646V7.62A12.565,12.565,0,0,0,8,8.84a12.565,12.565,0,0,0,6-1.22V9.5a4.516,4.516,0,0,1,1,.12V2.609C15-.87,1-.87,1,2.609V13.351C1,15.091,4.521,16,8,16c.652,0,1.3-.032,1.937-.1A4.44,4.44,0,0,1,9.6,14.925ZM8,.963c3.882,0,6,1.087,6,1.646S11.882,4.257,8,4.257,2,3.168,2,2.609,4.118.963,8,.963ZM2,4.04A12.565,12.565,0,0,0,8,5.26a12.565,12.565,0,0,0,6-1.22V6.19c0,.559-2.118,1.647-6,1.647S2,6.749,2,6.19Z"/><path d="M15.854,12.854,14.707,14l1.147,1.146a.5.5,0,0,1-.708.708L14,14.707l-1.146,1.147a.5.5,0,0,1-.708-.708L13.293,14l-1.147-1.146a.5.5,0,0,1,.708-.708L14,13.293l1.146-1.147a.5.5,0,0,1,.708.708Z" fill="#ff3d32"/></svg>