<?xml version="1.0" encoding="UTF-8"?>
<svg id="Layer_1" data-name="Layer 1" xmlns="http://www.w3.org/2000/svg" width="16" height="16" viewBox="0 0 16 16">
  <path d="M4,.5C4,.224,4.224,0,4.5,0h2C6.776,0,7,.224,7,.5s-.224,.5-.5,.5h-2c-.276,0-.5-.224-.5-.5Zm2.5,14.5h-2c-.276,0-.5,.224-.5,.5s.224,.5,.5,.5h2c.276,0,.5-.224,.5-.5s-.224-.5-.5-.5ZM1.5,0H.5C.224,0,0,.224,0,.5S.224,1,.5,1H1.5c.276,0,.5-.224,.5-.5S1.776,0,1.5,0Zm0,3H.5C.224,3,0,3.224,0,3.5s.224,.5,.5,.5H1.5c.276,0,.5-.224,.5-.5s-.224-.5-.5-.5Zm0,3H.5C.224,6,0,6.224,0,6.5s.224,.5,.5,.5H1.5c.276,0,.5-.224,.5-.5s-.224-.5-.5-.5Zm0,3H.5C.224,9,0,9.224,0,9.5s.224,.5,.5,.5H1.5c.276,0,.5-.224,.5-.5s-.224-.5-.5-.5Zm0,3H.5C.224,12,0,12.224,0,12.5s.224,.5,.5,.5H1.5c.276,0,.5-.224,.5-.5s-.224-.5-.5-.5Zm0,3H.5C.224,15,0,15.224,0,15.5s.224,.5,.5,.5H1.5c.276,0,.5-.224,.5-.5s-.224-.5-.5-.5ZM6,3.5c0,.276,.224,.5,.5,.5h6c.276,0,.5-.224,.5-.5s-.224-.5-.5-.5H6.5c-.276,0-.5,.224-.5,.5Zm2,3c0,.276,.224,.5,.5,.5h7c.276,0,.5-.224,.5-.5s-.224-.5-.5-.5h-7c-.276,0-.5,.224-.5,.5Zm.5,2.5c-.276,0-.5,.224-.5,.5s.224,.5,.5,.5h5c.276,0,.5-.224,.5-.5s-.224-.5-.5-.5h-5Zm1,3h-3c-.276,0-.5,.224-.5,.5s.224,.5,.5,.5h3c.276,0,.5-.224,.5-.5s-.224-.5-.5-.5Zm6,0h-3c-.276,0-.5,.224-.5,.5s.224,.5,.5,.5h3c.276,0,.5-.224,.5-.5s-.224-.5-.5-.5Z"/>
</svg>