<svg id="Layer_1" data-name="Layer 1" xmlns="http://www.w3.org/2000/svg" width="16" height="16" viewBox="0 0 16 16"><circle cx="11.989" cy="11.873" r="4" fill="#ff3d32"/><path d="M8.023,15H8c-3.882,0-6-1.087-6-1.646V11.2A11.4,11.4,0,0,0,7.04,12.4C7.029,12.262,7,12.135,7,12a4.984,4.984,0,0,1,.062-.615C3.79,11.226,2,10.282,2,9.771V8.352a4.921,4.921,0,0,1-1-.359v5.358C1,15.091,4.521,16,8,16c.333,0,.666-.011,1-.028A5.026,5.026,0,0,1,8.023,15Z"/><path d="M6.748.038a5,5,0,0,1,.7.944C7.635.977,7.805.963,8,.963c3.882,0,6,1.087,6,1.646s-2.093,1.63-5.922,1.645a5,5,0,0,1-.258,1c.06,0,.12,0,.18,0a12.565,12.565,0,0,0,6-1.22V6.19c0,.242-.422.582-1.19.892A4.943,4.943,0,0,1,15,8.026V2.609C15,.661,10.611-.195,6.748.038Z"/><path d="M5.84,7.7a4.964,4.964,0,0,1-1.777.7A17.213,17.213,0,0,0,8,8.84c.054,0,.107,0,.161,0A4.991,4.991,0,0,1,9.324,7.791c-.416.029-.856.046-1.324.046A17.847,17.847,0,0,1,5.84,7.7Z"/><polygon points="3.154 0.5 4.129 2.475 6.309 2.792 4.732 4.329 5.104 6.5 3.154 5.475 1.205 6.5 1.577 4.329 0 2.792 2.18 2.475 3.154 0.5" fill="#6c0"/></svg>