<?xml version="1.0" encoding="UTF-8"?>
<svg id="Layer_1" data-name="Layer 1" xmlns="http://www.w3.org/2000/svg" width="16" height="16" viewBox="0 0 16 16">
  <path d="M5.127,.209c.236,.27,.439,.568,.584,.901,.68-.088,1.434-.148,2.29-.148,3.882,0,6,1.088,6,1.647s-2.118,1.648-6,1.648c-.901,0-1.696-.063-2.402-.16-.174,.337-.391,.647-.661,.909,.961,.165,2.011,.253,3.063,.253,2.347,0,4.709-.416,6-1.22v2.15c0,.559-2.118,1.648-6,1.648s-6-1.089-6-1.648v-.24c-.354-.051-.689-.151-1-.299v7.701c0,1.74,3.521,2.649,7,2.649s7-.909,7-2.649V2.609C15,.38,9.256-.418,5.127,.209ZM14,13.351c0,.559-2.118,1.647-6,1.647s-6-1.088-6-1.647v-2.15c1.291,.804,3.653,1.219,6,1.219s4.709-.416,6-1.219v2.15Zm0-3.58c0,.559-2.118,1.647-6,1.647s-6-1.088-6-1.647v-2.151c1.291,.804,3.653,1.22,6,1.22s4.709-.416,6-1.22v2.151Z"/>
  <path d="M2,3.366v1.134c0,.276,.224,.5,.5,.5s.5-.224,.5-.5v-1.134l.982,.567c.079,.046,.165,.067,.25,.067,.172,0,.341-.09,.433-.25,.139-.239,.057-.545-.183-.683l-.983-.567,.983-.567c.239-.138,.321-.443,.183-.683-.138-.239-.444-.322-.683-.183l-.982,.567V.5C3,.224,2.776,0,2.5,0s-.5,.224-.5,.5V1.634l-.982-.567c-.238-.139-.545-.056-.683,.183-.139,.239-.057,.545,.183,.683l.983,.567-.983,.567c-.239,.138-.321,.443-.183,.683,.092,.16,.261,.25,.433,.25,.085,0,.171-.021,.25-.067l.982-.567Z"/>
</svg>