<svg id="Layer_1" data-name="Layer 1" xmlns="http://www.w3.org/2000/svg" width="16" height="16" viewBox="0 0 16 16">
  <path d="M8,7.5a3.5,3.5,0,0,1,7,0,3.446,3.446,0,0,1-.126.875.5.5,0,0,0,.359.609A.493.493,0,0,0,15.358,9a.5.5,0,0,0,.485-.375A4.435,4.435,0,0,0,16,7.5,4.491,4.491,0,0,0,7.843,4.9L4.874,3.246A2.493,2.493,0,0,0,5,2.5a2.529,2.529,0,1,0-.612,1.621L7.349,5.767a4.327,4.327,0,0,0-.192,2.858.5.5,0,0,0,.969-.25A3.446,3.446,0,0,1,8,7.5ZM2.5,4A1.5,1.5,0,1,1,4,2.5,1.5,1.5,0,0,1,2.5,4Z"/>
  <path d="M10.5,11h-1a.5.5,0,0,0-.5.5v4a.5.5,0,0,0,.5.5h1a1.494,1.494,0,0,0,1.11-2.5A1.494,1.494,0,0,0,10.5,11Zm0,4H10V14h.5a.5.5,0,0,1,0,1Zm0-2H10V12h.5a.5.5,0,0,1,0,1Zm-4-2h-1a.5.5,0,0,0-.5.5v4a.5.5,0,0,0,.5.5h1A1.5,1.5,0,0,0,8,14.5v-2A1.5,1.5,0,0,0,6.5,11ZM7,14.5a.5.5,0,0,1-.5.5H6V12h.5a.5.5,0,0,1,.5.5Zm9-1v2a.5.5,0,0,1-.5.5h-1A1.5,1.5,0,0,1,13,14.5v-2A1.5,1.5,0,0,1,14.5,11h1a.5.5,0,0,1,0,1h-1a.5.5,0,0,0-.5.5v2a.5.5,0,0,0,.5.5H15V14a.5.5,0,0,1,0-1h.5A.5.5,0,0,1,16,13.5Z"/>
</svg>
