<svg id="Layer_1" data-name="Layer 1" xmlns="http://www.w3.org/2000/svg" width="16" height="16" viewBox="0 0 16 16">
  <path d="M15.854,11.854,14.207,13.5l1.647,1.646a.5.5,0,0,1-.708.708L13.5,14.207l-1.646,1.647a.5.5,0,0,1-.708-.708L12.793,13.5l-1.647-1.646a.5.5,0,0,1,.708-.708L13.5,12.793l1.646-1.647a.5.5,0,0,1,.708.708Z" fill="#ff3d32"/>
  <path d="M15.48,6h-8a.5.5,0,0,0-.5.5v1H5V4H8.5A.5.5,0,0,0,9,3.5V.5A.5.5,0,0,0,8.5,0H.5A.5.5,0,0,0,0,.5v3A.5.5,0,0,0,.5,4H4v8.5a.5.5,0,0,0,.5.5H8.673a.5.5,0,1,0,0-1H5V8.5H6.98v1a.5.5,0,0,0,.5.5h1.8a.5.5,0,0,0,0-1H7.98V7h7V8.5a.5.5,0,0,0,1,0v-2A.5.5,0,0,0,15.48,6ZM1,1H8V3H1Z"/>
</svg>
