<svg id="Layer_1" data-name="Layer 1" xmlns="http://www.w3.org/2000/svg" width="16" height="16" viewBox="0 0 16 16">
  <path d="M15.5,1H4.5a.5.5,0,0,0-.3.1l-4,3a.5.5,0,0,0-.2.4v10a.5.5,0,0,0,.5.5h2a.5.5,0,0,0,0-1H1V5H5.5V6.5a.5.5,0,0,0,1,0V5H11V8.5a.5.5,0,0,0,1,0V4.75L15,2.5v6a.5.5,0,0,0,1,0v-7A.5.5,0,0,0,15.5,1ZM2,4,4.667,2H14L11.333,4Z"/>
  <path d="M10.5,11h-1a.5.5,0,0,0-.5.5v4a.5.5,0,0,0,.5.5h1a1.494,1.494,0,0,0,1.11-2.5A1.494,1.494,0,0,0,10.5,11Zm0,4H10V14h.5a.5.5,0,0,1,0,1Zm0-2H10V12h.5a.5.5,0,0,1,0,1Zm-4-2h-1a.5.5,0,0,0-.5.5v4a.5.5,0,0,0,.5.5h1A1.5,1.5,0,0,0,8,14.5v-2A1.5,1.5,0,0,0,6.5,11ZM7,14.5a.5.5,0,0,1-.5.5H6V12h.5a.5.5,0,0,1,.5.5Zm9-1v2a.5.5,0,0,1-.5.5h-1A1.5,1.5,0,0,1,13,14.5v-2A1.5,1.5,0,0,1,14.5,11h1a.5.5,0,0,1,0,1h-1a.5.5,0,0,0-.5.5v2a.5.5,0,0,0,.5.5H15V14a.5.5,0,0,1,0-1h.5A.5.5,0,0,1,16,13.5Z"/>
</svg>
