<svg id="Layer_1" data-name="Layer 1" xmlns="http://www.w3.org/2000/svg" width="16" height="16" viewBox="0 0 16 16">
  <path d="M15.854,11.854,14.207,13.5l1.647,1.646a.5.5,0,0,1-.708.708L13.5,14.207l-1.646,1.647a.5.5,0,0,1-.708-.708L12.793,13.5l-1.647-1.646a.5.5,0,0,1,.708-.708L13.5,12.793l1.646-1.647a.5.5,0,0,1,.708.708Z" fill="#ff3d32"/>
  <path d="M15.5,1H4.5a.5.5,0,0,0-.3.1l-4,3a.5.5,0,0,0-.2.4v10a.5.5,0,0,0,.5.5h8a.5.5,0,0,0,0-1H1V5H5.5V6.5a.5.5,0,0,0,1,0V5H11V8.5a.5.5,0,0,0,1,0V4.75L15,2.5v6a.5.5,0,0,0,1,0v-7A.5.5,0,0,0,15.5,1ZM11.333,4H2L4.667,2H14Z"/>
</svg>
