<svg id="Layer_1" data-name="Layer 1" xmlns="http://www.w3.org/2000/svg" width="16" height="16" viewBox="0 0 16 16">
  <path d="M15.687,3.069,8.187.036a.5.5,0,0,0-.375,0L.312,3.069A.5.5,0,0,0,0,3.533v8.934a.5.5,0,0,0,.312.464l7.5,3.033A.514.514,0,0,0,8,16a.5.5,0,0,0,.5-.5V6.9L15,4.275V8.5a.5.5,0,0,0,1,0V3.533A.5.5,0,0,0,15.687,3.069ZM8,1.039l6.166,2.494L8,6.027,1.834,3.533ZM1,12.13V4.275L7.5,6.9v7.855Z"/>
  <path d="M15.854,11.854,14.207,13.5l1.647,1.646a.5.5,0,0,1-.708.708L13.5,14.207l-1.646,1.647a.5.5,0,0,1-.708-.708L12.793,13.5l-1.647-1.646a.5.5,0,0,1,.708-.708L13.5,12.793l1.646-1.647a.5.5,0,0,1,.708.708Z" fill="#ff3d32"/>
</svg>
