<?xml version="1.0" encoding="UTF-8"?>
<svg id="Layer_1" data-name="Layer 1" xmlns="http://www.w3.org/2000/svg" width="16" height="16" viewBox="0 0 16 16">
  <path d="M13.5,1H4.5c-1.379,0-2.5,1.121-2.5,2.5v6.009c0,.276,.224,.5,.5,.5s.5-.224,.5-.5V3.5c0-.827,.673-1.5,1.5-1.5h7.012c-.317,.419-.512,.935-.512,1.5V12.5c0,.827-.673,1.5-1.5,1.5s-1.5-.673-1.5-1.5v-.991c0-.276-.224-.5-.5-.5H.5C.224,11.009,0,11.232,0,11.509v.991C0,13.879,1.121,15,2.5,15h7c1.379,0,2.5-1.121,2.5-2.5V3.5c0-.827,.673-1.5,1.5-1.5s1.5,.673,1.5,1.5v.5h-1.5c-.276,0-.5,.224-.5,.5s.224,.5,.5,.5h2c.276,0,.5-.224,.5-.5v-1c0-1.379-1.121-2.5-2.5-2.5ZM2.5,14c-.827,0-1.5-.673-1.5-1.5v-.491H7v.491c0,.562,.187,1.082,.501,1.5H2.5Zm6.115-7.185l-2.746,1.485c-.167,.09-.369-.031-.369-.22v-3.138c0-.194,.212-.314,.379-.214l2.746,1.653c.166,.1,.16,.342-.01,.434Z"/>
</svg>