<svg id="Layer_1" data-name="Layer 1" xmlns="http://www.w3.org/2000/svg" width="16" height="16" viewBox="0 0 16 16">
  <path d="M11.952,4.286A.5.5,0,0,0,11.5,4H7.9L9.924.765A.5.5,0,0,0,9.5,0h-4a.5.5,0,0,0-.435.252l-4,7a.507.507,0,0,0,0,.5A.5.5,0,0,0,1.5,8H4.778L2.032,15.324a.5.5,0,0,0,.855.492l9-11A.5.5,0,0,0,11.952,4.286Zm-7.92,8.551L5.968,7.676A.5.5,0,0,0,5.5,7H2.361L5.79,1H8.6L6.576,4.235A.5.5,0,0,0,7,5h3.445Z"/>
  <path d="M15.854,11.854,14.207,13.5l1.647,1.646a.5.5,0,0,1-.708.708L13.5,14.207l-1.646,1.647a.5.5,0,0,1-.708-.708L12.793,13.5l-1.647-1.646a.5.5,0,0,1,.708-.708L13.5,12.793l1.646-1.647a.5.5,0,0,1,.708.708Z" fill="#ff3d32"/>
</svg>
