<svg id="Layer_1" data-name="Layer 1" xmlns="http://www.w3.org/2000/svg" width="16" height="16" viewBox="0 0 16 16">
  <path d="M10.952,4.286A.5.5,0,0,0,10.5,4H6.9L8.924.765A.5.5,0,0,0,8.5,0h-4a.5.5,0,0,0-.435.252l-4,7a.507.507,0,0,0,0,.5A.5.5,0,0,0,.5,8H3.778L1.032,15.324a.5.5,0,0,0,.292.644A.493.493,0,0,0,1.5,16a.5.5,0,0,0,.468-.324l3-8A.5.5,0,0,0,4.5,7H1.361L4.79,1H7.6L5.576,4.235A.5.5,0,0,0,6,5H9.445l-2.6,3.184a.5.5,0,1,0,.773.632l3.273-4A.5.5,0,0,0,10.952,4.286Z"/>
  <path d="M10.5,11h-1a.5.5,0,0,0-.5.5v4a.5.5,0,0,0,.5.5h1a1.494,1.494,0,0,0,1.11-2.5A1.494,1.494,0,0,0,10.5,11ZM10,12h.5a.5.5,0,0,1,0,1H10Zm.5,3H10V14h.5a.5.5,0,0,1,0,1Zm-4-4h-1a.5.5,0,0,0-.5.5v4a.5.5,0,0,0,.5.5h1A1.5,1.5,0,0,0,8,14.5v-2A1.5,1.5,0,0,0,6.5,11ZM7,14.5a.5.5,0,0,1-.5.5H6V12h.5a.5.5,0,0,1,.5.5Zm7-2v2a.5.5,0,0,0,.5.5H15V14a.5.5,0,0,1,0-1h.5a.5.5,0,0,1,.5.5v2a.5.5,0,0,1-.5.5h-1A1.5,1.5,0,0,1,13,14.5v-2A1.5,1.5,0,0,1,14.5,11h1a.5.5,0,0,1,0,1h-1A.5.5,0,0,0,14,12.5Z"/>
</svg>
