<?xml version="1.0" encoding="utf-8"?>

<!DOCTYPE svg PUBLIC "-//W3C//DTD SVG 1.1//EN" "http://www.w3.org/Graphics/SVG/1.1/DTD/svg11.dtd">
<svg version="1.1" id="Layer_1" xmlns="http://www.w3.org/2000/svg" xmlns:xlink="http://www.w3.org/1999/xlink" x="0px" y="0px"
	 width="16px" height="16px" viewBox="0 0 16 16" enable-background="new 0 0 16 16" xml:space="preserve">
<path fill="#878C90" d="M15.12,9C14.86,9,13.15,9,11,9v5.99c0,0.55-0.45,1-1,1H6c-0.55,0-1-0.45-1-1V9C2.82,9,1.08,9,0.9,9
	C0.24,9-0.25,8.57,0.14,8.14C0.45,7.79,6.7,0.88,7.23,0.3c0.35-0.39,1.19-0.38,1.54,0c0.39,0.42,6.67,7.36,7.11,7.86
	C16.2,8.52,15.85,9,15.12,9z"/>
</svg>
