<?xml version="1.0" encoding="utf-8"?>
<!-- Generator: Adobe Illustrator 24.1.3, SVG Export Plug-In . SVG Version: 6.00 Build 0)  -->
<svg version="1.1" id="Layer_1" xmlns="http://www.w3.org/2000/svg" xmlns:xlink="http://www.w3.org/1999/xlink" x="0px" y="0px"
	 viewBox="0 0 32 32" style="enable-background:new 0 0 32 32;" xml:space="preserve">
<g id="database-16-2">
	<path d="M16,0C11.5,0,4,0.8,4,4v24c0,3.2,7.5,4,12,4s12-0.8,12-4V4C28,0.8,20.5,0,16,0z M6,14.4c3.2,1.2,6.6,1.7,10,1.6
		c3.4,0.1,6.8-0.4,10-1.6V20c-0.3,0.7-4,2-10,2s-9.7-1.3-10-2V14.4z M16,14c-6,0-9.7-1.3-10-2V6.4C9.2,7.6,12.6,8.1,16,8
		c3.4,0.1,6.8-0.4,10-1.6V12C25.7,12.7,22,14,16,14z M16,2c6,0,9.7,1.3,10,2c-0.3,0.7-4,2-10,2S6.3,4.7,6,4v0C6.3,3.3,10,2,16,2z
		 M16,30c-6,0-9.7-1.3-10-2v-5.6c3.2,1.2,6.6,1.7,10,1.6c3.4,0.1,6.8-0.4,10-1.6V28C25.7,28.7,22,30,16,30z"/>
</g>
</svg>
