<svg id="Layer_1" data-name="Layer 1" xmlns="http://www.w3.org/2000/svg" width="16" height="16" viewBox="0 0 16 16"><path d="M15,2.609V7H14V4.04A12.565,12.565,0,0,1,8,5.26,12.565,12.565,0,0,1,2,4.04V6.19C2,6.7,3.766,7.634,7,7.8v1.01A11.336,11.336,0,0,1,2,7.62V9.771c0,.508,1.766,1.444,5,1.612v1.009A11.337,11.337,0,0,1,2,11.2v2.15c0,.508,1.766,1.444,5,1.612v1.009c-3.122-.157-6-1.049-6-2.621V2.609C1-.87,15-.87,15,2.609Zm-1,0C14,2.05,11.882.963,8,.963S2,2.05,2,2.609,4.118,4.257,8,4.257,14,3.168,14,2.609Z" fill="#fff"/><path d="M14.854,9.854,12.707,12l2.147,2.146a.5.5,0,0,1-.708.708L12,12.707,9.854,14.854a.5.5,0,0,1-.708-.708L11.293,12,9.146,9.854a.5.5,0,0,1,.708-.708L12,11.293l2.146-2.147a.5.5,0,0,1,.708.708Z" fill="#dc0703"/></svg>