<?xml version="1.0" encoding="UTF-8"?>
<svg id="Layer_1" data-name="Layer 1" xmlns="http://www.w3.org/2000/svg" width="16" height="16" viewBox="0 0 16 16">
  <path d="M14.854,9.854l-2.147,2.146,2.147,2.146c.196,.196,.196,.512,0,.708s-.512,.196-.708,0l-2.146-2.147-2.146,2.147c-.196,.196-.512,.196-.708,0s-.196-.512,0-.708l2.147-2.146-2.147-2.146c-.196-.196-.196-.512,0-.708s.512-.196,.708,0l2.146,2.147,2.146-2.147c.196-.196,.512-.196,.708,0s.196,.512,0,.708Z" fill="#dc0703"/>
  <g>
    <path d="M2,6.19v-.241c-.354-.051-.689-.151-1-.299v7.7c0,1.572,2.878,2.464,6,2.621v-1.009c-3.234-.168-5-1.104-5-1.612v-2.15c1.553,.775,3.264,1.183,5,1.192v-1.009c-3.234-.168-5-1.104-5-1.612v-2.151c1.554,.774,3.264,1.181,5,1.19v-1.01c-3.234-.166-5-1.1-5-1.61Z" fill="#fff"/>
    <path d="M5.127,.209c.236,.27,.439,.568,.584,.902,.68-.088,1.434-.148,2.29-.148,3.882,0,6,1.087,6,1.646s-2.118,1.648-6,1.648c-.901,0-1.696-.063-2.403-.16-.178,.344-.401,.658-.677,.923,1.009,.206,2.043,.287,3.08,.24,2.07,.094,4.131-.325,6-1.22v2.96h1V2.609C15,.38,9.256-.418,5.127,.209Z" fill="#fff"/>
    <path d="M2,3.366v1.134c0,.276,.224,.5,.5,.5s.5-.224,.5-.5v-1.134l.982,.567c.079,.046,.165,.067,.25,.067,.172,0,.341-.09,.433-.25,.139-.239,.057-.545-.183-.683l-.983-.567,.983-.567c.239-.138,.321-.443,.183-.683-.138-.239-.444-.322-.683-.183l-.982,.567V.5C3,.224,2.776,0,2.5,0s-.5,.224-.5,.5V1.634l-.982-.567c-.239-.139-.545-.056-.683,.183-.139,.239-.057,.545,.183,.683l.983,.567-.983,.567c-.239,.138-.321,.443-.183,.683,.092,.16,.261,.25,.433,.25,.085,0,.171-.021,.25-.067l.982-.567Z" fill="#fff"/>
  </g>
</svg>