<?xml version="1.0" encoding="UTF-8"?>
<svg id="Layer_1" data-name="Layer 1" xmlns="http://www.w3.org/2000/svg" width="16" height="16" viewBox="0 0 16 16">
  <path d="M4,.5C4,.224,4.224,0,4.5,0h2C6.776,0,7,.224,7,.5s-.224,.5-.5,.5h-2c-.276,0-.5-.224-.5-.5Zm2.5,8.5h-2c-.276,0-.5,.224-.5,.5s.224,.5,.5,.5h2c.276,0,.5-.224,.5-.5s-.224-.5-.5-.5ZM1.5,0H.5C.224,0,0,.224,0,.5S.224,1,.5,1H1.5c.276,0,.5-.224,.5-.5S1.776,0,1.5,0Zm0,3H.5C.224,3,0,3.224,0,3.5s.224,.5,.5,.5H1.5c.276,0,.5-.224,.5-.5s-.224-.5-.5-.5Zm0,3H.5C.224,6,0,6.224,0,6.5s.224,.5,.5,.5H1.5c.276,0,.5-.224,.5-.5s-.224-.5-.5-.5Zm0,3H.5C.224,9,0,9.224,0,9.5s.224,.5,.5,.5H1.5c.276,0,.5-.224,.5-.5s-.224-.5-.5-.5ZM5,3.5c0,.276,.224,.5,.5,.5h6c.276,0,.5-.224,.5-.5s-.224-.5-.5-.5H5.5c-.276,0-.5,.224-.5,.5Zm10.5,2.5H7.5c-.276,0-.5,.224-.5,.5s.224,.5,.5,.5H15.5c.276,0,.5-.224,.5-.5s-.224-.5-.5-.5Zm.05,5.658l-.636,.481c.018,.119,.036,.237,.036,.36s-.019,.242-.036,.36l.636,.481c.201,.152,.257,.43,.131,.648l-.3,.52c-.092,.159-.259,.25-.433,.25-.065,0-.131-.013-.194-.039l-.738-.311c-.188,.15-.395,.276-.622,.366l-.098,.786c-.031,.251-.244,.438-.496,.438h-.6c-.252,0-.465-.188-.496-.438l-.098-.786c-.227-.09-.434-.216-.622-.366l-.738,.311c-.063,.026-.129,.039-.194,.039-.174,0-.341-.091-.433-.25l-.3-.52c-.126-.219-.07-.496,.131-.648l.636-.481c-.018-.119-.036-.237-.036-.36s.019-.242,.036-.36l-.636-.481c-.201-.152-.257-.43-.131-.648l.3-.52c.127-.219,.396-.306,.627-.211l.738,.311c.188-.15,.395-.276,.622-.366l.098-.786c.031-.251,.244-.438,.496-.438h.6c.252,0,.465,.188,.496,.438l.098,.786c.227,.09,.434,.216,.622,.366l.738-.311c.231-.096,.5-.008,.627,.211l.3,.52c.126,.219,.07,.496-.131,.648Zm-2.05,.842c0-.552-.448-1-1-1s-1,.448-1,1,.448,1,1,1,1-.448,1-1Z" fill="#fff"/>
</svg>