<svg id="Layer_1" data-name="Layer 1" xmlns="http://www.w3.org/2000/svg" width="16" height="16" viewBox="0 0 16 16"><path d="M1,2.609V13.351C1,15.091,4.521,16,8,16s7-.909,7-2.649V2.609C15-.87,1-.87,1,2.609ZM8,.963c3.882,0,6,1.087,6,1.646S11.882,4.257,8,4.257,2,3.168,2,2.609,4.118.963,8,.963ZM8,15c-3.882,0-6-1.088-6-1.647V11.2A12.578,12.578,0,0,0,8,12.42,12.578,12.578,0,0,0,14,11.2v2.15C14,13.91,11.882,15,8,15Zm0-3.581c-3.882,0-6-1.087-6-1.646V7.62A12.565,12.565,0,0,0,8,8.84a12.565,12.565,0,0,0,6-1.22V9.771C14,10.33,11.882,11.417,8,11.417Zm0-3.58c-3.882,0-6-1.088-6-1.647V4.04A12.565,12.565,0,0,0,8,5.26a12.565,12.565,0,0,0,6-1.22V6.19C14,6.749,11.882,7.837,8,7.837Z" fill="#fff"/></svg>