<svg id="Layer_1" data-name="Layer 1" xmlns="http://www.w3.org/2000/svg" width="16" height="16" viewBox="0 0 16 16"><polygon points="3.154 0.5 4.129 2.475 6.309 2.792 4.732 4.329 5.104 6.5 3.154 5.475 1.205 6.5 1.577 4.329 0 2.792 2.18 2.475 3.154 0.5" fill="#6c0"/><path d="M6.748.038a5,5,0,0,1,.7.944C7.635.977,7.805.963,8,.963c3.882,0,6,1.087,6,1.646s-2.093,1.63-5.922,1.645a5,5,0,0,1-.258,1c.06,0,.12,0,.18,0a12.565,12.565,0,0,0,6-1.22V6.19c0,.559-2.118,1.647-6,1.647A17.847,17.847,0,0,1,5.84,7.7a4.964,4.964,0,0,1-1.777.7A17.213,17.213,0,0,0,8,8.84a12.565,12.565,0,0,0,6-1.22V9.771c0,.559-2.118,1.646-6,1.646S2,10.33,2,9.771V8.352a4.921,4.921,0,0,1-1-.359v5.358C1,15.091,4.521,16,8,16s7-.909,7-2.649V2.609C15,.661,10.611-.195,6.748.038ZM14,13.351C14,13.91,11.882,15,8,15S2,13.91,2,13.351V11.2A12.578,12.578,0,0,0,8,12.42,12.578,12.578,0,0,0,14,11.2Z" fill="#fff"/></svg>