<svg id="Layer_1" data-name="Layer 1" xmlns="http://www.w3.org/2000/svg" width="16" height="16" viewBox="0 0 16 16">
  <path d="M15.5,6h-8a.5.5,0,0,0-.5.5v1H5V4H8.5A.5.5,0,0,0,9,3.5V.5A.5.5,0,0,0,8.5,0H.5A.5.5,0,0,0,0,.5v3A.5.5,0,0,0,.5,4H4V8a.5.5,0,0,0,.5.5H7a.5.5,0,0,0,1,0V7h7V8.5a.5.5,0,0,0,1,0v-2A.5.5,0,0,0,15.5,6ZM1,1H8V3H1Z" fill="#fff"/>
  <path d="M10.5,11h-1a.5.5,0,0,0-.5.5v4a.5.5,0,0,0,.5.5h1a1.494,1.494,0,0,0,1.11-2.5A1.494,1.494,0,0,0,10.5,11Zm0,4H10V14h.5a.5.5,0,0,1,0,1Zm0-2H10V12h.5a.5.5,0,0,1,0,1Zm-4-2h-1a.5.5,0,0,0-.5.5v4a.5.5,0,0,0,.5.5h1A1.5,1.5,0,0,0,8,14.5v-2A1.5,1.5,0,0,0,6.5,11ZM7,14.5a.5.5,0,0,1-.5.5H6V12h.5a.5.5,0,0,1,.5.5Zm9-1v2a.5.5,0,0,1-.5.5h-1A1.5,1.5,0,0,1,13,14.5v-2A1.5,1.5,0,0,1,14.5,11h1a.5.5,0,0,1,0,1h-1a.5.5,0,0,0-.5.5v2a.5.5,0,0,0,.5.5H15V14a.5.5,0,0,1,0-1h.5A.5.5,0,0,1,16,13.5Z" fill="#fff"/>
</svg>
