<svg id="Layer_1" data-name="Layer 1" xmlns="http://www.w3.org/2000/svg" width="16" height="16" viewBox="0 0 16 16">
  <path d="M15.854,11.854,14.207,13.5l1.647,1.646a.5.5,0,0,1-.708.708L13.5,14.207l-1.646,1.647a.5.5,0,0,1-.708-.708L12.793,13.5l-1.647-1.646a.5.5,0,0,1,.708-.708L13.5,12.793l1.646-1.647a.5.5,0,0,1,.708.708Z" fill="#ff3d32"/>
  <path d="M11.5,3A4.491,4.491,0,0,0,7.843,4.9L4.874,3.246A2.493,2.493,0,0,0,5,2.5a2.529,2.529,0,1,0-.612,1.621L7.349,5.767a4.48,4.48,0,0,0,1.025,4.962.5.5,0,1,0,.7-.719A3.5,3.5,0,1,1,15,7.5a3.422,3.422,0,0,1-.16.985.5.5,0,0,0,.959.284A4.355,4.355,0,0,0,16,7.5,4.505,4.505,0,0,0,11.5,3Zm-9,1A1.5,1.5,0,1,1,4,2.5,1.5,1.5,0,0,1,2.5,4Z" fill="#fff"/>
</svg>
