<svg id="Layer_1" data-name="Layer 1" xmlns="http://www.w3.org/2000/svg" width="16" height="16" viewBox="0 0 16 16">
  <path d="M16,3.524a.483.483,0,0,0-.033-.178.481.481,0,0,0-.04-.06.441.441,0,0,0-.035-.053.5.5,0,0,0-.2-.161l0,0L8.187.036a.5.5,0,0,0-.375,0L.312,3.069l0,0a.5.5,0,0,0-.2.162.465.465,0,0,0-.034.052.481.481,0,0,0-.04.06A.5.5,0,0,0,0,3.524l0,.009v8.934a.5.5,0,0,0,.312.464l2,.808a.5.5,0,1,0,.375-.927L1,12.13V4.275L7.5,6.9V8.5a.5.5,0,0,0,1,0V6.9L15,4.275V8.5a.5.5,0,0,0,1,0V3.533Zm-8,2.5L1.834,3.533,8,1.039l6.166,2.494Z" fill="#fff"/>
  <path d="M10.5,11h-1a.5.5,0,0,0-.5.5v4a.5.5,0,0,0,.5.5h1a1.494,1.494,0,0,0,1.11-2.5A1.494,1.494,0,0,0,10.5,11Zm0,4H10V14h.5a.5.5,0,0,1,0,1Zm0-2H10V12h.5a.5.5,0,0,1,0,1Zm-4-2h-1a.5.5,0,0,0-.5.5v4a.5.5,0,0,0,.5.5h1A1.5,1.5,0,0,0,8,14.5v-2A1.5,1.5,0,0,0,6.5,11ZM7,14.5a.5.5,0,0,1-.5.5H6V12h.5a.5.5,0,0,1,.5.5Zm9-1v2a.5.5,0,0,1-.5.5h-1A1.5,1.5,0,0,1,13,14.5v-2A1.5,1.5,0,0,1,14.5,11h1a.5.5,0,0,1,0,1h-1a.5.5,0,0,0-.5.5v2a.5.5,0,0,0,.5.5H15V14a.5.5,0,0,1,0-1h.5A.5.5,0,0,1,16,13.5Z" fill="#fff"/>
</svg>
