<?xml version="1.0" encoding="UTF-8"?>
<svg id="Layer_1" data-name="Layer 1" xmlns="http://www.w3.org/2000/svg" width="16" height="16" viewBox="0 0 16 16">
  <path d="M14.854,5.854l-2,2c-.098,.098-.226,.146-.354,.146s-.256-.049-.354-.146l-2-2c-.195-.195-.195-.512,0-.707s.512-.195,.707,0l1.146,1.146v-1.293c0-2.206-1.794-4-4-4s-4,1.794-4,4c0,.793,.238,1.46,.774,2.164,.835,1.102,1.726,2.394,1.726,3.792v.044l3-.044c0-.785,.288-1.631,.881-2.586,.146-.235,.456-.305,.688-.161,.234,.146,.307,.454,.161,.688-.491,.792-.73,1.466-.73,2.059v.544c0,.276-.224,.5-.5,.5H6c-.276,0-.5-.224-.5-.5v-.544c0-1.088-.786-2.216-1.522-3.188-.667-.877-.978-1.757-.978-2.769C3,2.243,5.243,0,8,0s5,2.243,5,5v1.293l1.146-1.146c.195-.195,.512-.195,.707,0s.195,.512,0,.707Zm-5.354,7.146h-3c-.276,0-.5,.224-.5,.5s.224,.5,.5,.5h3c.276,0,.5-.224,.5-.5s-.224-.5-.5-.5Zm-.5,2h-2c-.276,0-.5,.224-.5,.5s.224,.5,.5,.5h2c.276,0,.5-.224,.5-.5s-.224-.5-.5-.5Z" fill="#fff"/>
</svg>