<?xml version="1.0" encoding="UTF-8"?>
<svg id="Layer_1" data-name="Layer 1" xmlns="http://www.w3.org/2000/svg" width="16" height="16" viewBox="0 0 16 16">
  <path d="M8,0C3.582,0,0,3.582,0,8s3.582,8,8,8,8-3.582,8-8C15.995,3.584,12.416,.005,8,0Zm0,15c-3.866,0-7-3.134-7-7S4.134,1,8,1s7,3.134,7,7c-.004,3.864-3.136,6.996-7,7Zm3.447-7.224c.124,.247,.024,.547-.223,.671l-5,2.5c-.07,.035-.146,.053-.224,.053-.276,0-.5-.224-.5-.5V5.5c0-.078,.018-.154,.053-.224,.124-.247,.424-.347,.671-.223l5,2.5c.096,.048,.175,.127,.223,.223Z" fill="#fff"/>
</svg>